<svg id="Layer_1" data-name="Layer 1" xmlns="http://www.w3.org/2000/svg" viewBox="0 0 100 100"><defs><style>.cls-1{fill:#fff;stroke:#1d1d1b;stroke-miterlimit:10;}.cls-2{fill:#fead34;}.cls-3{fill:#0f4c6a;}</style></defs><path class="cls-1" d="M21.75,81.62"/><polygon class="cls-2" points="100 0 0 100 0 0 100 0"/><polygon class="cls-3" points="100 0 100 100 0 100 55.88 44.13 72.22 27.78 100 0"/><path class="cls-2" d="M48.12,71.65H37.44L19.56,44.59V71.65H8.88V27.78H19.56L37.44,55V27.78H48.12Z"/><path class="cls-3" d="M37.44,27.78V55L19.56,27.78H8.88V71.65H19.56V44.59L33.82,66.18l14.3-14.3V27.78Z"/><path class="cls-3" d="M78.25,71.65,69.12,55.09H66.56V71.65H55.88V27.78H73.81a19.76,19.76,0,0,1,8.85,1.81,12.44,12.44,0,0,1,5.46,5,13.85,13.85,0,0,1,1.82,7,13.08,13.08,0,0,1-2.47,7.81,13.32,13.32,0,0,1-7.28,4.88L90.31,71.65ZM66.56,47.53h6.63a6,6,0,0,0,4.4-1.44A5.42,5.42,0,0,0,79.06,42a5.26,5.26,0,0,0-1.47-3.94,6,6,0,0,0-4.4-1.44H66.56Z"/><path class="cls-2" d="M80.19,54.28a13.35,13.35,0,0,0,7.28-4.88,13.1,13.1,0,0,0,2.47-7.81,13.82,13.82,0,0,0-1.82-7,12.44,12.44,0,0,0-5.46-5,19.76,19.76,0,0,0-8.85-1.81H72.22L55.88,44.12V71.65H66.56V55.09h2.56l9.13,16.56H90.31Zm-2.6-8.19a6.06,6.06,0,0,1-4.4,1.44H66.56V36.65h6.63a6.06,6.06,0,0,1,4.4,1.44A5.26,5.26,0,0,1,79.06,42,5.42,5.42,0,0,1,77.59,46.09Z"/></svg>