<svg id="Layer_1" data-name="Layer 1" xmlns="http://www.w3.org/2000/svg" viewBox="0 0 1746.33 423.31"><defs><style>.cls-1{fill:#f54538;}.cls-2{fill:none;stroke:#000;stroke-miterlimit:10;}</style></defs><path class="cls-1" d="M8167.63,7090.48V7424.7H6422.31V7146.3c75.48-65.6,172.58-121.22,262.28-119.59,134.3,2.43,266.6,112.83,391.39,154.33,143.69,47.79,283.59,52.1,393.7-17.15,70.51-44.36,155.84-92.83,232.81-129C7847.16,6967.05,8025,7015,8167.63,7090.48Z" transform="translate(-6421.81 -7001.89)"/><path class="cls-2" d="M8167.63,7090.48V7424.7H6422.31V7146.3c75.48-65.6,172.58-121.22,262.28-119.59,134.3,2.43,266.6,112.83,391.39,154.33,143.69,47.79,283.59,52.1,393.7-17.15,70.51-44.36,155.84-92.83,232.81-129C7847.16,6967.05,8025,7015,8167.63,7090.48Z" transform="translate(-6421.81 -7001.89)"/></svg>